<svg data-v-0dd9719b="" version="1.0" xmlns="http://www.w3.org/2000/svg" xmlns:xlink="http://www.w3.org/1999/xlink" width="100%" height="100%" viewBox="0 0 340.000000 250.000000" preserveAspectRatio="xMidYMid meet" color-interpolation-filters="sRGB" style="margin: auto;"> <rect data-v-0dd9719b="" x="0" y="0" width="100%" height="100%" fill="#fff" fill-opacity="1" class="background"></rect> <rect data-v-0dd9719b="" x="0" y="0" width="100%" height="100%" fill="url(#watermark)" fill-opacity="1" class="watermarklayer"></rect> <g data-v-0dd9719b="" fill="#25bcbd" class="icon-text-wrapper icon-svg-group iconsvg" transform="translate(49.045005798339844,94.87861061096191)"><g class="iconsvg-imagesvg" transform="translate(0,0)"><g><rect fill="#25bcbd" fill-opacity="0" stroke-width="2" x="0" y="0" width="60" height="60.24277839693966" class="image-rect"></rect> <svg x="0" y="0" width="60" height="60.24277839693966" filtersec="colorsb4558076514" class="image-svg-svg primary" style="overflow: visible;"><svg xmlns="http://www.w3.org/2000/svg" viewBox="0 8.699999809265137 618.0999755859375 620.5999755859375"><path d="M136.5 183.6H149c1.7 0 3-1.4 3-3v-12.5c0-1.7-1.4-3-3-3h-12.5c-1.7 0-3 1.4-3 3v12.5c-.1 1.7 1.3 3 3 3zM112.9 280.3v14.8c0 2 1.6 3.6 3.6 3.6h14.8c2 0 3.6-1.6 3.6-3.6v-14.8c0-2-1.6-3.6-3.6-3.6h-14.8c-2 0-3.6 1.6-3.6 3.6zM36.1 305.8v-24.3c0-3.2-2.6-5.9-5.9-5.9H5.9c-3.2 0-5.9 2.6-5.9 5.9v24.3c0 3.2 2.6 5.9 5.9 5.9h24.3c3.2 0 5.9-2.7 5.9-5.9zM42.6 260.9h58.5c7.8 0 14.2-6.4 14.2-14.2v-58.5c0-7.8-6.4-14.2-14.2-14.2H42.6c-7.8 0-14.2 6.4-14.2 14.2v58.5c0 7.8 6.4 14.2 14.2 14.2zM154.2 148.9h65.5c8.7 0 15.9-7.1 15.9-15.9V67.6c0-8.7-7.1-15.9-15.9-15.9h-65.5c-8.7 0-15.9 7.1-15.9 15.9v65.5c.1 8.7 7.2 15.8 15.9 15.8zM478.5 160h83.7c4.9 0 9.5.9 13.8 2.6-13.5-23.1-29.9-44.3-48.7-63.1C471.2 43.4 393.6 8.7 307.9 8.7V123.8c53.5 0 102 21.5 137.2 56.4 6.4-12 19-20.2 33.4-20.2zM261.7 118.2c-2.3 0-4.1 1.8-4.1 4.1v16.9c0 2.3 1.8 4.1 4.1 4.1h16.9c2.3 0 4.1-1.8 4.1-4.1v-16.9c0-2.3-1.8-4.1-4.1-4.1h-16.9zM77.5 153h26.1c3.5 0 6.3-2.8 6.3-6.3v-26.1c0-3.5-2.8-6.3-6.3-6.3H77.5c-3.5 0-6.3 2.8-6.3 6.3v26.1c0 3.4 2.9 6.3 6.3 6.3zM282.1 530.8h-13.2c-1.8 0-3.2 1.4-3.2 3.2v13.2c0 1.8 1.4 3.2 3.2 3.2h13.2c1.8 0 3.2-1.4 3.2-3.2V534c0-1.8-1.5-3.2-3.2-3.2zM599.8 281.4c0 20.7-16.9 37.7-37.7 37.7H503c0 107.8-87.4 195.1-195.2 195.1V629.3c85.7 0 163.3-34.7 219.4-90.9 56.1-56.1 90.9-133.7 90.9-219.4 0-37-6.5-72.5-18.4-105.4v67.8zM112.1 473.8H78.8c-4.4 0-8.1 3.6-8.1 8.1v33.3c0 4.4 3.6 8.1 8.1 8.1h33.3c4.4 0 8.1-3.6 8.1-8.1v-33.3c-.1-4.5-3.7-8.1-8.1-8.1zM282 460.2v-24.3c0-3.2-2.6-5.9-5.9-5.9h-24.3c-3.2 0-5.9 2.6-5.9 5.9v24.3c0 3.2 2.6 5.9 5.9 5.9h24.3c3.3 0 5.9-2.7 5.9-5.9zM230 493.4h-65.4c-8.7 0-15.9 7.1-15.9 15.9v65.4c0 8.7 7.1 15.9 15.9 15.9H230c8.7 0 15.9-7.1 15.9-15.9v-65.4c-.1-8.7-7.2-15.9-15.9-15.9zM253.2 390v-48.6c0-6.5-5.3-11.8-11.8-11.8h-48.6c-6.5 0-11.8 5.3-11.8 11.8V390c0 6.5 5.3 11.8 11.8 11.8h48.6c6.5 0 11.8-5.3 11.8-11.8z" fill="#25bcbd"></path><linearGradient id="a23ca9a45-1be7-40b5-9436-d6ce29d47b8b" gradientUnits="userSpaceOnUse" x1="20.209" y1="314.098" x2="582.468" y2="314.098"><stop offset="0" stop-color="#25bcbd"></stop><stop offset="1" stop-color="#c2d72e"></stop></linearGradient><path d="M179.9 300.5c2.1.7 4.3 1.1 6.6 1.1h83.7c2.3 0 4.6-.4 6.6-1.1l37.4 37.4c-1.3 2.7-2 5.7-2 8.8v83.7c0 11.2 9.1 20.3 20.3 20.3h83.7c11.2 0 20.3-9.1 20.3-20.3v-83.7c0-3.2-.7-6.2-2-8.8l37.4-37.4c2.1.7 4.3 1.1 6.6 1.1h83.7c11.2 0 20.3-9.1 20.3-20.3v-83.7c0-11.2-9.1-20.3-20.3-20.3h-83.7c-11.2 0-20.3 9.1-20.3 20.3v83.7c0 2.8.6 5.5 1.6 7.9l-38.1 38.1c-1.8-.5-3.6-.8-5.6-.8h-83.7c-1.9 0-3.8.3-5.6.8l-38.1-38.1c1-2.4 1.6-5.1 1.6-7.9v-83.7c0-11.2-9.1-20.3-20.3-20.3h-83.7c-11.2 0-20.3 9.1-20.3 20.3v83.7c0 2.8.6 5.5 1.6 7.9l-38.1 38.1c-1.8-.5-3.6-.8-5.6-.8H40.5c-11.2 0-20.3 9.1-20.3 20.3v83.7c0 11.2 9.1 20.3 20.3 20.3h83.7c11.2 0 20.3-9.1 20.3-20.3v-83.7c0-3.2-.7-6.2-2-8.8l37.4-37.5z" fill="url(#a23ca9a45-1be7-40b5-9436-d6ce29d47b8b)"></path><path d="M189.8 434.5c-1.6 0-2.9 1.3-2.9 2.9v12.1c0 1.6 1.3 2.9 2.9 2.9H202c1.6 0 2.9-1.3 2.9-2.9v-12.1c0-1.6-1.3-2.9-2.9-2.9h-12.2z" fill="#25bcbd"></path></svg></svg> <!----></g></g> <g transform="translate(67,1.715139389038086)"><g data-gra="path-name" fill-rule="" class="tp-name iconsvg-namesvg" transform="translate(0,0)"><g transform="scale(1)"><g><path d="M11.69-11.73L11.69-11.73 14.99-10.9Q12.08-4.35 7.08 0.79L7.08 0.79Q6.59 1.23 6.2 1.63L6.2 1.63Q5.23 0.66 3.38-0.57L3.38-0.57Q8-4.39 10.99-10.24L10.99-10.24Q11.38-11.03 11.69-11.73ZM39.2-18.59L39.16-15.34 26.19-15.34 26.19-1.14Q26.19 1.41 24.83 2.2L24.83 2.2Q24.61 2.29 24.39 2.37L24.39 2.37Q22.59 3.08 17.49 3.08L17.49 3.08Q17.27 1.49 16.26-0.35L16.26-0.35Q20.39-0.22 21.97-0.31L21.97-0.31Q22.81-0.53 22.85-1.19L22.85-1.19 22.85-15.34 12.96-15.34Q8.75-15.34 8.13-14.68L8.13-14.68Q7.47-16.83 6.9-18.15L6.9-18.15Q7.87-18.41 9.49-20.61L9.49-20.61Q9.71-20.92 10.24-21.67L10.24-21.67Q12.39-24.7 14.5-28.52L14.5-28.52 3.65-28.52 3.65-31.73 16.17-31.73Q17.53-34.28 18.98-37.88L18.98-37.88 22.46-36.39Q21.67-34.54 20.21-31.73L20.21-31.73 41.04-31.73 41.04-28.52 18.5-28.52Q15.6-23.29 12.26-18.59L12.26-18.59 22.85-18.59 22.85-25.14 26.19-25.14 26.19-18.59 39.2-18.59ZM29.88-10.46L29.88-10.46 32.61-11.82Q38.28-6.37 41.48-1.63L41.48-1.63Q41.88-1.05 42.14-0.57L42.14-0.57 39.16 1.05Q36.74-3.16 31.38-8.88L31.38-8.88Q30.59-9.76 29.88-10.46ZM61.3-28.17L58.05-28.17 58.05-31.68 47.94-31.68 47.94-34.54 58.05-34.54 58.05-37.62 61.3-37.62 61.3-34.54 73.39-34.54 73.39-37.62 76.68-37.62 76.68-34.54 87.23-34.54 87.23-31.68 76.68-31.68 76.68-28.17 73.39-28.17 73.39-31.68 61.3-31.68 61.3-28.17ZM86.09-26.1L86.09-18.02 82.75-18.02 82.75-23.29 52.25-23.29 52.25-18.02 49.04-18.02 49.04-26.1 65.79-26.1 65.79-29.88 69.04-29.88 69.04-26.1 86.09-26.1ZM80.02-19.64L80.02-16.92 54.84-16.92 54.84-19.64 80.02-19.64ZM76.33-0.31L76.33-0.31 82.53-0.31Q83.76-0.31 84.11-1.19L84.11-1.19Q84.42-2.11 84.55-4.97L84.55-4.97Q85.65-4.13 87.63-3.65L87.63-3.65Q87.28 0.97 85.87 2.11L85.87 2.11Q84.86 2.9 82.88 2.9L82.88 2.9 76.03 2.9Q72.38 2.9 71.46 1.49L71.46 1.49Q70.8 0.48 70.8-1.67L70.8-1.67 70.8-10.02 63.11-10.02Q62.14-3.87 58.8-0.88L58.8-0.88Q55.5 2.11 48.74 3.56L48.74 3.56Q48.25 2.11 47.11 0.88L47.11 0.88Q46.98 0.75 46.93 0.7L46.93 0.7Q54.76-0.79 57.44-4.35L57.44-4.35Q59.02-6.46 59.63-10.02L59.63-10.02 47.64-10.02 47.64-13.05 87.36-13.05 87.36-10.02 74.14-10.02 74.14-1.67Q74.14-0.62 74.79-0.44L74.79-0.44Q75.28-0.31 76.33-0.31ZM124.98-14.72L114.92-14.72 114.92-10.5 124.98-10.5 124.98-14.72ZM124.98-24.26L124.98-28.26 114.92-28.26 114.92-24.26 124.98-24.26ZM124.98-21.53L114.92-21.53 114.92-17.4 124.98-17.4 124.98-21.53ZM128.23-10.5L133.07-10.5 133.07-7.43 106.61-7.43 106.61-10.5 111.75-10.5 111.75-28.26 107.45-28.26 107.45-31.33 111.75-31.33 111.75-37.62 114.92-37.62 114.92-31.33 124.98-31.33 124.98-37.62 128.23-37.62 128.23-31.33 132.36-31.33 132.36-28.26 128.23-28.26 128.23-10.5ZM100.68-7.16L105.73-8.75 106.17-5.67Q100.11-3.74 92.33-1.36L92.33-1.36 91.71-4.53Q93.12-4.92 97.56-6.24L97.56-6.24 97.56-18.59 92.55-18.59 92.55-21.71 97.56-21.71 97.56-31.46 92.2-31.46 92.2-34.58 106.17-34.58 106.17-31.46 100.68-31.46 100.68-21.71 105.21-21.71 105.21-18.59 100.68-18.59 100.68-7.16ZM114.21-6.64L114.21-6.64 116.98-5.05Q113.73-0.48 108.33 3.08L108.33 3.08Q107.93 3.3 107.62 3.52L107.62 3.52Q106.88 2.5 105.42 1.32L105.42 1.32Q110-1.41 113.29-5.41L113.29-5.41Q113.82-6.06 114.21-6.64ZM122.48-4.83L122.48-4.83 125.02-6.5Q129.59-3.03 132.58 0.62L132.58 0.62Q132.98 1.05 133.24 1.45L133.24 1.45 130.56 3.38Q128.45 0.22 123.57-3.96L123.57-3.96Q123-4.44 122.48-4.83ZM151.79-27.38L148.49-27.38 148.49-31.25 137.86-31.25 137.86-34.19 148.49-34.19 148.49-37.57 151.79-37.57 151.79-34.19 163.08-34.19 163.08-37.57 166.38-37.57 166.38-34.19 177.14-34.19 177.14-31.25 166.38-31.25 166.38-27.38 163.08-27.38 163.08-31.25 151.79-31.25 151.79-27.38ZM176.09-26.15L176.09-18.24 172.79-18.24 172.79-23.16 142.29-23.16 142.29-18.24 139.09-18.24 139.09-26.15 176.09-26.15ZM176.79-16.44L176.79-13.4 161.24-13.4Q165.45-7.73 172.84-3.69L172.84-3.69Q175.61-2.2 178.29-1.23L178.29-1.23Q177.01-0.09 175.96 1.67L175.96 1.67Q168.49-1.49 162.25-7.87L162.25-7.87Q160.49-9.67 159.08-11.51L159.08-11.51 159.08 3.43 155.79 3.43 155.79-11.34Q150.78-4.7 143.04-0.4L143.04-0.4Q140.93 0.75 138.91 1.58L138.91 1.58Q137.77-0.13 136.67-1.14L136.67-1.14Q144.23-3.82 150.16-9.4L150.16-9.4Q152.27-11.38 153.76-13.4L153.76-13.4 138.21-13.4 138.21-16.44 155.79-16.44 155.79-22.06 159.08-22.06 159.08-16.44 176.79-16.44Z" transform="translate(-3.380000114440918, 37.880001068115234)"></path></g> <!----> <!----> <!----> <!----> <!----> <!----> <!----></g></g> <g data-gra="path-slogan" fill-rule="" class="tp-slogan iconsvg-slogansvg" fill="#25bcbd" transform="translate(27.199996948242188,47.44000244140625)"><!----> <!----> <g transform="scale(1, 1)"><g transform="scale(1)"><path d="M4.41 0L0.94 0L0.94-8.58L4.45-8.58Q7.92-8.39 8.06-4.41L8.06-4.41Q7.88-0.09 4.41 0L4.41 0ZM4.27-7.64L2.11-7.64L2.11-0.98L4.36-0.98Q6.80-1.13 6.89-4.31L6.89-4.31Q6.84-7.55 4.27-7.64L4.27-7.64ZM16.31-4.27L16.31-4.27Q16.13-7.64 13.31-7.83L13.31-7.83Q10.45-7.69 10.31-4.27L10.31-4.27Q10.45-0.94 13.31-0.80L13.31-0.80Q16.13-0.98 16.31-4.27ZM17.48-4.27L17.48-4.27Q17.20 0 13.31 0.14L13.31 0.14Q9.38 0 9.09-4.27L9.09-4.27Q9.33-8.72 13.31-8.81L13.31-8.81Q17.20-8.67 17.48-4.27ZM20.25-8.58L24.56-1.64L24.56-8.58L25.69-8.58L25.69 0L24.38 0L20.02-6.94L19.97-6.94L19.97 0L18.84 0L18.84-8.58L20.25-8.58ZM33.89-3.61L31.27-3.61L31.27-4.59L35.02-4.59L35.02 0L34.27 0L33.98-1.08Q33 0.09 31.17 0.14L31.17 0.14Q29.44 0.14 28.50-0.75L28.50-0.75Q27.09-2.06 27.14-4.36L27.14-4.36Q27.47-8.63 31.22-8.81L31.22-8.81Q34.41-8.63 34.88-6L34.88-6L33.75-6Q33.28-7.78 31.17-7.83L31.17-7.83Q28.50-7.64 28.36-4.31L28.36-4.31Q28.36-0.75 31.22-0.75L31.22-0.75Q32.25-0.75 33-1.31L33-1.31Q33.94-2.06 33.89-3.61L33.89-3.61ZM43.22-3.61L40.59-3.61L40.59-4.59L44.34-4.59L44.34 0L43.59 0L43.31-1.08Q42.33 0.09 40.50 0.14L40.50 0.14Q38.77 0.14 37.83-0.75L37.83-0.75Q36.42-2.06 36.47-4.36L36.47-4.36Q36.80-8.63 40.55-8.81L40.55-8.81Q43.73-8.63 44.20-6L44.20-6L43.08-6Q42.61-7.78 40.50-7.83L40.50-7.83Q37.83-7.64 37.69-4.31L37.69-4.31Q37.69-0.75 40.55-0.75L40.55-0.75Q41.58-0.75 42.33-1.31L42.33-1.31Q43.27-2.06 43.22-3.61L43.22-3.61ZM51.80-3.19L51.80-8.58L52.97-8.58L52.97-3.05Q52.83 0.05 49.45 0.14L49.45 0.14Q46.31 0.05 46.17-2.86L46.17-2.86L46.17-8.58L47.34-8.58L47.34-3.19Q47.39-0.84 49.50-0.80L49.50-0.80Q51.80-0.84 51.80-3.19L51.80-3.19ZM60.42 0L59.58-2.48L56.11-2.48L55.22 0L54.05 0L57.28-8.58L58.59-8.58L61.69 0L60.42 0ZM57.84-7.31L56.48-3.52L59.16-3.52L57.89-7.31L57.84-7.31ZM64.13-8.58L68.44-1.64L68.44-8.58L69.56-8.58L69.56 0L68.25 0L63.89-6.94L63.84-6.94L63.84 0L62.72 0L62.72-8.58L64.13-8.58ZM79.69-1.08L78.80-1.78L79.41-2.48L80.48-1.64Q81.47-2.63 81.47-4.27L81.47-4.27Q81.28-7.64 78.47-7.83L78.47-7.83Q75.61-7.69 75.47-4.27L75.47-4.27Q75.61-0.94 78.47-0.80L78.47-0.80Q79.17-0.80 79.69-1.08L79.69-1.08ZM81.42-0.94L82.55-0.05L81.98 0.56L80.67-0.33Q79.83 0.14 78.47 0.14L78.47 0.14Q74.53 0 74.25-4.27L74.25-4.27Q74.48-8.72 78.47-8.81L78.47-8.81Q82.36-8.67 82.64-4.27L82.64-4.27Q82.59-2.20 81.42-0.94L81.42-0.94ZM84.19-8.58L85.36-8.58L85.36 0L84.19 0L84.19-8.58ZM91.45-3.70L88.64-3.70L88.64 0L87.47 0L87.47-8.58L91.45-8.58Q94.31-8.58 94.31-6.28L94.31-6.28Q94.31-4.88 93.09-4.22L93.09-4.22Q94.13-3.94 94.13-2.58L94.13-2.58L94.22-1.03Q94.17-0.38 94.64-0.19L94.64-0.19L94.64 0L93.19 0Q93.05-0.61 93-2.16L93-2.16Q93.05-3.70 91.45-3.70L91.45-3.70ZM91.55-7.64L88.64-7.64L88.64-4.69L91.36-4.69Q93.09-4.69 93.09-6.19L93.09-6.19Q93.09-7.64 91.55-7.64L91.55-7.64ZM102.75-4.27L102.75-4.27Q102.56-7.64 99.75-7.83L99.75-7.83Q96.89-7.69 96.75-4.27L96.75-4.27Q96.89-0.94 99.75-0.80L99.75-0.80Q102.56-0.98 102.75-4.27ZM103.92-4.27L103.92-4.27Q103.64 0 99.75 0.14L99.75 0.14Q95.81 0 95.53-4.27L95.53-4.27Q95.77-8.72 99.75-8.81L99.75-8.81Q103.64-8.67 103.92-4.27ZM106.69-8.58L111-1.64L111-8.58L112.13-8.58L112.13 0L110.81 0L106.45-6.94L106.41-6.94L106.41 0L105.28 0L105.28-8.58L106.69-8.58ZM120.33-3.61L117.70-3.61L117.70-4.59L121.45-4.59L121.45 0L120.70 0L120.42-1.08Q119.44 0.09 117.61 0.14L117.61 0.14Q115.88 0.14 114.94-0.75L114.94-0.75Q113.53-2.06 113.58-4.36L113.58-4.36Q113.91-8.63 117.66-8.81L117.66-8.81Q120.84-8.63 121.31-6L121.31-6L120.19-6Q119.72-7.78 117.61-7.83L117.61-7.83Q114.94-7.64 114.80-4.31L114.80-4.31Q114.80-0.75 117.66-0.75L117.66-0.75Q118.69-0.75 119.44-1.31L119.44-1.31Q120.38-2.06 120.33-3.61L120.33-3.61Z" transform="translate(-0.9375, 8.8125)"></path></g></g></g></g></g><defs v-gra="od"></defs></svg>